<svg xmlns="http://www.w3.org/2000/svg" xmlns:xlink="http://www.w3.org/1999/xlink" width="500" zoomAndPan="magnify" viewBox="0 0 375 374.999991" height="500" preserveAspectRatio="xMidYMid meet" version="1.0"><defs><g/></defs><path fill="#00aeef" d="M 187.722656 126.964844 L 159.703125 155.042969 L 167.785156 163.140625 C 167.785156 163.140625 167.789062 163.144531 167.789062 163.144531 L 187.722656 183.121094 L 207.660156 163.144531 C 207.660156 163.140625 207.660156 163.140625 207.664062 163.136719 L 215.742188 155.042969 Z M 187.722656 126.964844 " fill-opacity="1" fill-rule="nonzero"/><path fill="#33bef2" d="M 187.722656 183.121094 L 204.941406 200.375 C 209.40625 204.847656 216.644531 204.847656 221.105469 200.375 L 241.042969 180.398438 L 215.738281 155.042969 L 207.660156 163.136719 C 207.660156 163.136719 207.660156 163.140625 207.65625 163.144531 Z M 187.722656 183.121094 " fill-opacity="1" fill-rule="nonzero"/><path fill="#66cef5" d="M 215.738281 155.042969 L 241.042969 180.398438 L 258.261719 163.144531 C 262.722656 158.671875 262.722656 151.417969 258.261719 146.945312 L 241.042969 129.691406 Z M 215.738281 155.042969 " fill-opacity="1" fill-rule="nonzero"/><path fill="#99dff9" d="M 215.738281 155.042969 L 241.039062 129.6875 L 221.101562 109.710938 C 216.640625 105.238281 209.402344 105.238281 204.9375 109.710938 L 187.71875 126.964844 Z M 215.738281 155.042969 " fill-opacity="1" fill-rule="nonzero"/><path fill="#002c3c" d="M 159.703125 155.042969 L 134.402344 180.398438 L 154.335938 200.375 C 158.800781 204.847656 166.039062 204.847656 170.5 200.375 L 186.933594 183.910156 L 187.71875 183.121094 L 167.785156 163.144531 C 167.785156 163.144531 167.785156 163.140625 167.78125 163.140625 Z M 159.703125 155.042969 " fill-opacity="1" fill-rule="nonzero"/><path fill="#005778" d="M 159.703125 155.042969 L 134.402344 129.6875 L 117.183594 146.941406 C 112.71875 151.414062 112.71875 158.667969 117.183594 163.140625 L 134.402344 180.394531 Z M 159.703125 155.042969 " fill-opacity="1" fill-rule="nonzero"/><path fill="#0083b3" d="M 154.335938 109.710938 L 134.402344 129.691406 L 159.703125 155.042969 L 187.722656 126.964844 L 170.503906 109.710938 C 166.039062 105.238281 158.804688 105.238281 154.335938 109.710938 Z M 154.335938 109.710938 " fill-opacity="1" fill-rule="nonzero"/><g fill="#000000" fill-opacity="1"><g transform="translate(127.417965, 266.63758)"><g><path d="M 9.078125 -8.359375 L 5.90625 -8.359375 L 5.90625 0 L 3.234375 0 L 3.234375 -8.359375 L 0.109375 -8.359375 L 0.109375 -10.515625 L 9.078125 -10.515625 Z M 9.078125 -8.359375 "/></g></g></g><g fill="#000000" fill-opacity="1"><g transform="translate(138.082954, 266.63758)"><g><path d="M 9.265625 -8.40625 L 3.71875 -8.40625 L 3.71875 -6.3125 L 8.734375 -6.3125 L 8.734375 -4.21875 L 3.71875 -4.21875 L 3.71875 -2.09375 L 9.4375 -2.09375 L 9.4375 0 L 1.046875 0 L 1.046875 -10.5 L 9.265625 -10.5 Z M 9.265625 -8.40625 "/></g></g></g><g fill="#000000" fill-opacity="1"><g transform="translate(149.692938, 266.63758)"><g><path d="M 5.96875 -10.59375 C 6.75 -10.59375 7.515625 -10.429688 8.265625 -10.109375 C 9.023438 -9.785156 9.671875 -9.351562 10.203125 -8.8125 L 8.65625 -6.984375 C 8.3125 -7.410156 7.898438 -7.742188 7.421875 -7.984375 C 6.953125 -8.234375 6.484375 -8.359375 6.015625 -8.359375 C 5.179688 -8.359375 4.484375 -8.0625 3.921875 -7.46875 C 3.367188 -6.882812 3.09375 -6.164062 3.09375 -5.3125 C 3.09375 -4.425781 3.367188 -3.6875 3.921875 -3.09375 C 4.484375 -2.507812 5.179688 -2.21875 6.015625 -2.21875 C 6.453125 -2.21875 6.90625 -2.328125 7.375 -2.546875 C 7.851562 -2.765625 8.28125 -3.066406 8.65625 -3.453125 L 10.21875 -1.796875 C 9.644531 -1.222656 8.96875 -0.757812 8.1875 -0.40625 C 7.414062 -0.0507812 6.644531 0.125 5.875 0.125 C 4.300781 0.125 2.988281 -0.390625 1.9375 -1.421875 C 0.882812 -2.453125 0.359375 -3.738281 0.359375 -5.28125 C 0.359375 -6.789062 0.890625 -8.050781 1.953125 -9.0625 C 3.023438 -10.082031 4.363281 -10.59375 5.96875 -10.59375 Z M 5.96875 -10.59375 "/></g></g></g><g fill="#000000" fill-opacity="1"><g transform="translate(161.572923, 266.63758)"><g><path d="M 10.734375 0 L 8.0625 0 L 8.0625 -4.078125 L 3.71875 -4.078125 L 3.71875 0 L 1.046875 0 L 1.046875 -10.5 L 3.71875 -10.5 L 3.71875 -6.1875 L 8.0625 -6.1875 L 8.0625 -10.5 L 10.734375 -10.5 Z M 10.734375 0 "/></g></g></g><g fill="#000000" fill-opacity="1"><g transform="translate(174.862912, 266.63758)"><g><path d="M 10.734375 0 L 8.390625 0 L 3.5625 -6.46875 L 3.5625 0 L 1.046875 0 L 1.046875 -10.5 L 3.40625 -10.5 L 8.25 -4.015625 L 8.25 -10.5 L 10.734375 -10.5 Z M 10.734375 0 "/></g></g></g><g fill="#000000" fill-opacity="1"><g transform="translate(188.152901, 266.63758)"><g><path d="M 6.03125 -10.59375 C 7.65625 -10.59375 9.007812 -10.082031 10.09375 -9.0625 C 11.175781 -8.050781 11.71875 -6.785156 11.71875 -5.265625 C 11.71875 -3.734375 11.171875 -2.453125 10.078125 -1.421875 C 8.992188 -0.390625 7.640625 0.125 6.015625 0.125 C 4.398438 0.125 3.050781 -0.382812 1.96875 -1.40625 C 0.894531 -2.4375 0.359375 -3.722656 0.359375 -5.265625 C 0.359375 -6.796875 0.894531 -8.066406 1.96875 -9.078125 C 3.050781 -10.085938 4.40625 -10.59375 6.03125 -10.59375 Z M 6.0625 -8.359375 C 5.238281 -8.359375 4.535156 -8.054688 3.953125 -7.453125 C 3.378906 -6.859375 3.09375 -6.125 3.09375 -5.25 C 3.09375 -4.375 3.382812 -3.628906 3.96875 -3.015625 C 4.550781 -2.410156 5.25 -2.109375 6.0625 -2.109375 C 6.875 -2.109375 7.5625 -2.410156 8.125 -3.015625 C 8.6875 -3.628906 8.96875 -4.375 8.96875 -5.25 C 8.96875 -6.125 8.6875 -6.859375 8.125 -7.453125 C 7.5625 -8.054688 6.875 -8.359375 6.0625 -8.359375 Z M 6.0625 -8.359375 "/></g></g></g><g fill="#000000" fill-opacity="1"><g transform="translate(201.727893, 266.63758)"><g><path d="M 3.71875 -2.234375 L 8.171875 -2.234375 L 8.171875 0 L 1.046875 0 L 1.046875 -10.5 L 3.71875 -10.5 Z M 3.71875 -2.234375 "/></g></g></g><g fill="#000000" fill-opacity="1"><g transform="translate(211.62789, 266.63758)"><g><path d="M 6.03125 -10.59375 C 7.65625 -10.59375 9.007812 -10.082031 10.09375 -9.0625 C 11.175781 -8.050781 11.71875 -6.785156 11.71875 -5.265625 C 11.71875 -3.734375 11.171875 -2.453125 10.078125 -1.421875 C 8.992188 -0.390625 7.640625 0.125 6.015625 0.125 C 4.398438 0.125 3.050781 -0.382812 1.96875 -1.40625 C 0.894531 -2.4375 0.359375 -3.722656 0.359375 -5.265625 C 0.359375 -6.796875 0.894531 -8.066406 1.96875 -9.078125 C 3.050781 -10.085938 4.40625 -10.59375 6.03125 -10.59375 Z M 6.0625 -8.359375 C 5.238281 -8.359375 4.535156 -8.054688 3.953125 -7.453125 C 3.378906 -6.859375 3.09375 -6.125 3.09375 -5.25 C 3.09375 -4.375 3.382812 -3.628906 3.96875 -3.015625 C 4.550781 -2.410156 5.25 -2.109375 6.0625 -2.109375 C 6.875 -2.109375 7.5625 -2.410156 8.125 -3.015625 C 8.6875 -3.628906 8.96875 -4.375 8.96875 -5.25 C 8.96875 -6.125 8.6875 -6.859375 8.125 -7.453125 C 7.5625 -8.054688 6.875 -8.359375 6.0625 -8.359375 Z M 6.0625 -8.359375 "/></g></g></g><g fill="#000000" fill-opacity="1"><g transform="translate(225.202882, 266.63758)"><g><path d="M 8.03125 -5.34375 L 10.328125 -5.34375 L 10.328125 -1.25 C 9.765625 -0.84375 9.078125 -0.507812 8.265625 -0.25 C 7.460938 0 6.695312 0.125 5.96875 0.125 C 4.363281 0.125 3.023438 -0.382812 1.953125 -1.40625 C 0.890625 -2.4375 0.359375 -3.71875 0.359375 -5.25 C 0.359375 -6.769531 0.90625 -8.039062 2 -9.0625 C 3.101562 -10.082031 4.488281 -10.59375 6.15625 -10.59375 C 6.925781 -10.59375 7.695312 -10.453125 8.46875 -10.171875 C 9.238281 -9.890625 9.894531 -9.507812 10.4375 -9.03125 L 8.9375 -7.21875 C 8.5625 -7.5625 8.125 -7.835938 7.625 -8.046875 C 7.125 -8.253906 6.628906 -8.359375 6.140625 -8.359375 C 5.273438 -8.359375 4.550781 -8.054688 3.96875 -7.453125 C 3.382812 -6.859375 3.09375 -6.125 3.09375 -5.25 C 3.09375 -4.363281 3.382812 -3.617188 3.96875 -3.015625 C 4.5625 -2.410156 5.296875 -2.109375 6.171875 -2.109375 C 6.722656 -2.109375 7.34375 -2.28125 8.03125 -2.625 Z M 8.03125 -5.34375 "/></g></g></g><g fill="#000000" fill-opacity="1"><g transform="translate(237.84787, 266.63758)"><g><path d="M 6.46875 -3.390625 L 6.46875 0 L 3.8125 0 L 3.8125 -3.3125 L -0.078125 -10.5 L 2.59375 -10.5 L 5.125 -5.921875 L 7.609375 -10.5 L 10.28125 -10.5 Z M 6.46875 -3.390625 "/></g></g></g><g fill="#000000" fill-opacity="1"><g transform="translate(109.28207, 245.83759)"><g><path d="M 18.84375 -17.921875 L 7.9375 -17.921875 L 7.9375 -12.734375 L 17.984375 -12.734375 L 17.984375 -8.25 L 7.9375 -8.25 L 7.9375 0 L 2.234375 0 L 2.234375 -22.40625 L 18.84375 -22.40625 Z M 18.84375 -17.921875 "/></g></g></g><g fill="#000000" fill-opacity="1"><g transform="translate(128.605314, 245.83759)"><g><path d="M 7.9375 -4.765625 L 17.4375 -4.765625 L 17.4375 0 L 2.234375 0 L 2.234375 -22.40625 L 7.9375 -22.40625 Z M 7.9375 -4.765625 "/></g></g></g><g fill="#000000" fill-opacity="1"><g transform="translate(146.520913, 245.83759)"><g><path d="M 13.796875 -7.234375 L 13.796875 0 L 8.125 0 L 8.125 -7.078125 L -0.15625 -22.40625 L 5.53125 -22.40625 L 10.9375 -12.640625 L 16.21875 -22.40625 L 21.921875 -22.40625 Z M 13.796875 -7.234375 "/></g></g></g><g fill="#000000" fill-opacity="1"><g transform="translate(168.275569, 245.83759)"><g><path d="M 15.75 0 L 12.421875 -6.296875 L 7.9375 -6.296875 L 7.9375 0 L 2.234375 0 L 2.234375 -22.40625 L 12.25 -22.40625 C 15.21875 -22.40625 17.507812 -21.726562 19.125 -20.375 C 20.75 -19.019531 21.5625 -17.09375 21.5625 -14.59375 C 21.5625 -11.132812 20.207031 -8.734375 17.5 -7.390625 L 22.203125 0 Z M 7.9375 -10.78125 L 12.25 -10.78125 C 13.488281 -10.78125 14.445312 -11.085938 15.125 -11.703125 C 15.8125 -12.328125 16.15625 -13.226562 16.15625 -14.40625 C 16.15625 -15.550781 15.8125 -16.421875 15.125 -17.015625 C 14.445312 -17.617188 13.488281 -17.921875 12.25 -17.921875 L 7.9375 -17.921875 Z M 7.9375 -10.78125 "/></g></g></g><g fill="#000000" fill-opacity="1"><g transform="translate(191.437871, 245.83759)"><g><path d="M 17.125 -4.125 L 7.328125 -4.125 L 5.703125 0 L -0.15625 0 L 9.5 -22.40625 L 15.359375 -22.40625 L 24.796875 0 L 18.71875 0 Z M 15.453125 -8.453125 L 12.25 -16.734375 L 8.984375 -8.453125 Z M 15.453125 -8.453125 "/></g></g></g><g fill="#000000" fill-opacity="1"><g transform="translate(216.071815, 245.83759)"><g><path d="M 14.5625 0 L 8.671875 0 L -0.03125 -22.40625 L 6.046875 -22.40625 L 11.78125 -5.921875 L 17.5 -22.40625 L 23.359375 -22.40625 Z M 14.5625 0 "/></g></g></g><g fill="#000000" fill-opacity="1"><g transform="translate(239.394083, 245.83759)"><g><path d="M 19.78125 -17.921875 L 7.9375 -17.921875 L 7.9375 -13.46875 L 18.625 -13.46875 L 18.625 -8.984375 L 7.9375 -8.984375 L 7.9375 -4.484375 L 20.125 -4.484375 L 20.125 0 L 2.234375 0 L 2.234375 -22.40625 L 19.78125 -22.40625 Z M 19.78125 -17.921875 "/></g></g></g><g fill="#000000" fill-opacity="1"><g transform="translate(260.956788, 245.83759)"><g><path d="M 7.9375 -4.765625 L 17.4375 -4.765625 L 17.4375 0 L 2.234375 0 L 2.234375 -22.40625 L 7.9375 -22.40625 Z M 7.9375 -4.765625 "/></g></g></g></svg>