<svg width="201" height="56" viewBox="0 0 201 56" fill="none" xmlns="http://www.w3.org/2000/svg">
<g filter="url(#filter0_d_3_6152)">
<path d="M23.125 2.875V37H14.8984V2.875H23.125ZM33.3906 2.875V9.22656H4.86719V2.875H33.3906Z" fill="#FF5300"/>
<path d="M44.4766 17.9219V37H36.5781V11.6406H43.9609L44.4766 17.9219ZM51.9766 11.4531L51.8359 18.7891C51.5234 18.7578 51.1016 18.7188 50.5703 18.6719C50.0391 18.625 49.5938 18.6016 49.2344 18.6016C48.3125 18.6016 47.5156 18.7109 46.8438 18.9297C46.1875 19.1328 45.6406 19.4453 45.2031 19.8672C44.7812 20.2734 44.4688 20.7891 44.2656 21.4141C44.0781 22.0391 43.9922 22.7656 44.0078 23.5938L42.5781 22.6562C42.5781 20.9531 42.7422 19.4062 43.0703 18.0156C43.4141 16.6094 43.8984 15.3984 44.5234 14.3828C45.1484 13.3516 45.9062 12.5625 46.7969 12.0156C47.6875 11.4531 48.6875 11.1719 49.7969 11.1719C50.1875 11.1719 50.5703 11.1953 50.9453 11.2422C51.3359 11.2891 51.6797 11.3594 51.9766 11.4531ZM67.1641 30.625V20.1719C67.1641 19.4531 67.0625 18.8359 66.8594 18.3203C66.6562 17.8047 66.3359 17.4062 65.8984 17.125C65.4609 16.8281 64.875 16.6797 64.1406 16.6797C63.5469 16.6797 63.0391 16.7812 62.6172 16.9844C62.1953 17.1875 61.875 17.4922 61.6562 17.8984C61.4375 18.3047 61.3281 18.8203 61.3281 19.4453H53.4297C53.4297 18.2734 53.6875 17.1875 54.2031 16.1875C54.7344 15.1719 55.4844 14.2891 56.4531 13.5391C57.4375 12.7891 58.6094 12.2109 59.9688 11.8047C61.3438 11.3828 62.875 11.1719 64.5625 11.1719C66.5781 11.1719 68.375 11.5078 69.9531 12.1797C71.5469 12.8516 72.8047 13.8594 73.7266 15.2031C74.6484 16.5312 75.1094 18.2031 75.1094 20.2188V30.6016C75.1094 32.2578 75.2031 33.5156 75.3906 34.375C75.5781 35.2188 75.8438 35.9609 76.1875 36.6016V37H68.2656C67.8906 36.2188 67.6094 35.2656 67.4219 34.1406C67.25 33 67.1641 31.8281 67.1641 30.625ZM68.125 21.5078L68.1719 25.7266H64.6797C63.9453 25.7266 63.3203 25.8281 62.8047 26.0312C62.3047 26.2344 61.8984 26.5156 61.5859 26.875C61.2891 27.2188 61.0703 27.6094 60.9297 28.0469C60.8047 28.4844 60.7422 28.9453 60.7422 29.4297C60.7422 29.8984 60.8516 30.3203 61.0703 30.6953C61.3047 31.0547 61.6172 31.3359 62.0078 31.5391C62.3984 31.7422 62.8359 31.8438 63.3203 31.8438C64.1953 31.8438 64.9375 31.6797 65.5469 31.3516C66.1719 31.0078 66.6484 30.5938 66.9766 30.1094C67.3047 29.625 67.4688 29.1719 67.4688 28.75L69.2031 31.9844C68.8906 32.6094 68.5312 33.2422 68.125 33.8828C67.7344 34.5234 67.2422 35.1172 66.6484 35.6641C66.0703 36.1953 65.3594 36.6328 64.5156 36.9766C63.6719 37.3047 62.6484 37.4688 61.4453 37.4688C59.8828 37.4688 58.4453 37.1484 57.1328 36.5078C55.8359 35.8672 54.7969 34.9766 54.0156 33.8359C53.2344 32.6797 52.8438 31.3516 52.8438 29.8516C52.8438 28.5391 53.0781 27.3672 53.5469 26.3359C54.0312 25.3047 54.7578 24.4297 55.7266 23.7109C56.6953 22.9922 57.9297 22.4453 59.4297 22.0703C60.9297 21.6953 62.6953 21.5078 64.7266 21.5078H68.125ZM88.2578 31.5859L93.25 11.6406H101.57L93.2734 37H88.3516L88.2578 31.5859ZM85.3047 11.6406L90.2266 31.5859L90.1797 37H85.2344L76.9609 11.6406H85.3047ZM115.867 37.4688C113.805 37.4688 111.961 37.1484 110.336 36.5078C108.711 35.8516 107.336 34.9531 106.211 33.8125C105.102 32.6719 104.25 31.3594 103.656 29.875C103.078 28.3906 102.789 26.8203 102.789 25.1641V24.2734C102.789 22.4141 103.047 20.6953 103.562 19.1172C104.078 17.5234 104.844 16.1328 105.859 14.9453C106.875 13.7578 108.148 12.8359 109.68 12.1797C111.211 11.5078 112.992 11.1719 115.023 11.1719C116.82 11.1719 118.43 11.4609 119.852 12.0391C121.273 12.6172 122.477 13.4453 123.461 14.5234C124.461 15.6016 125.219 16.9062 125.734 18.4375C126.266 19.9688 126.531 21.6875 126.531 23.5938V26.8047H105.812V21.8594H118.82V21.25C118.836 20.4062 118.688 19.6875 118.375 19.0938C118.078 18.5 117.641 18.0469 117.062 17.7344C116.484 17.4219 115.781 17.2656 114.953 17.2656C114.094 17.2656 113.383 17.4531 112.82 17.8281C112.273 18.2031 111.844 18.7188 111.531 19.375C111.234 20.0156 111.023 20.7578 110.898 21.6016C110.773 22.4453 110.711 23.3359 110.711 24.2734V25.1641C110.711 26.1016 110.836 26.9531 111.086 27.7188C111.352 28.4844 111.727 29.1406 112.211 29.6875C112.711 30.2188 113.305 30.6328 113.992 30.9297C114.695 31.2266 115.492 31.375 116.383 31.375C117.461 31.375 118.523 31.1719 119.57 30.7656C120.617 30.3594 121.516 29.6875 122.266 28.75L125.852 33.0156C125.336 33.75 124.602 34.4609 123.648 35.1484C122.711 35.8359 121.586 36.3984 120.273 36.8359C118.961 37.2578 117.492 37.4688 115.867 37.4688ZM138.086 1V37H130.164V1H138.086ZM152.641 37H144.695V10.0469C144.695 7.98438 145.141 6.25 146.031 4.84375C146.922 3.42187 148.211 2.34375 149.898 1.60938C151.602 0.875 153.641 0.507812 156.016 0.507812C157.047 0.507812 158.336 0.539062 159.883 0.601562C161.43 0.648438 162.984 0.710938 164.547 0.789062C166.125 0.851563 167.461 0.921875 168.555 1L165.367 7.35156C163.977 7.13281 162.609 6.95312 161.266 6.8125C159.922 6.67188 158.578 6.60156 157.234 6.60156C156.25 6.60156 155.414 6.73438 154.727 7C154.055 7.26562 153.539 7.65625 153.18 8.17188C152.82 8.67187 152.641 9.29688 152.641 10.0469V37ZM160.633 37V1H168.555V37H160.633ZM157.562 11.6406V17.125H141.039V11.6406H157.562ZM181.211 34.0234L187.773 11.6406H196.258L186.062 40.7734C185.844 41.4141 185.555 42.1016 185.195 42.8359C184.836 43.5859 184.344 44.2969 183.719 44.9688C183.094 45.6406 182.289 46.1875 181.305 46.6094C180.336 47.0312 179.133 47.2422 177.695 47.2422C176.93 47.2422 176.367 47.2031 176.008 47.125C175.664 47.0625 175.133 46.9453 174.414 46.7734V41.125C174.617 41.125 174.789 41.125 174.93 41.125C175.086 41.125 175.258 41.125 175.445 41.125C176.289 41.125 176.961 41.0391 177.461 40.8672C177.977 40.6953 178.367 40.4453 178.633 40.1172C178.914 39.7891 179.133 39.3906 179.289 38.9219L181.211 34.0234ZM179.547 11.6406L184.539 29.3828L185.406 37.75H180.109L171.086 11.6406H179.547Z" fill="#090909"/>
</g>
<defs>
<filter id="filter0_d_3_6152" x="0.867188" y="0.507812" width="199.391" height="54.7344" filterUnits="userSpaceOnUse" color-interpolation-filters="sRGB">
<feFlood flood-opacity="0" result="BackgroundImageFix"/>
<feColorMatrix in="SourceAlpha" type="matrix" values="0 0 0 0 0 0 0 0 0 0 0 0 0 0 0 0 0 0 127 0" result="hardAlpha"/>
<feOffset dy="4"/>
<feGaussianBlur stdDeviation="2"/>
<feComposite in2="hardAlpha" operator="out"/>
<feColorMatrix type="matrix" values="0 0 0 0 0 0 0 0 0 0 0 0 0 0 0 0 0 0 0.25 0"/>
<feBlend mode="normal" in2="BackgroundImageFix" result="effect1_dropShadow_3_6152"/>
<feBlend mode="normal" in="SourceGraphic" in2="effect1_dropShadow_3_6152" result="shape"/>
</filter>
</defs>
</svg>
